<svg xmlns="http://www.w3.org/2000/svg" viewBox="0 0 1200 820" role="img" aria-labelledby="title desc">
  <title id="title">Gros plan matière céramique</title>
  <desc id="desc">Illustration de texture céramique avec veinage minéral et finition mate.</desc>
  <rect width="1200" height="820" fill="#efe5db"/>
  <rect x="120" y="120" width="960" height="580" rx="36" fill="#f9f6f1"/>
  <path d="M220 220c60 40 90 100 140 130s120 30 160 70 40 110 120 130 180-20 240 25" fill="none" stroke="#b69b86" stroke-width="26" stroke-linecap="round"/>
  <path d="M280 260c40 55 70 110 135 155s150 55 210 90 90 90 180 100" fill="none" stroke="#d7c9ba" stroke-width="18" stroke-linecap="round"/>
  <path d="M345 165c55 40 100 95 180 135s155 28 220 70 95 110 175 125" fill="none" stroke="#8a5a44" stroke-width="10" stroke-linecap="round"/>
  <rect x="860" y="540" width="140" height="90" rx="18" fill="#ffffff"/>
  <rect x="888" y="565" width="82" height="14" rx="7" fill="#b87453"/>
  <rect x="888" y="593" width="60" height="10" rx="5" fill="#9d846f"/>
</svg>
